<?xml version="1.0" standalone="no"?>
<!DOCTYPE svg PUBLIC "-//W3C//DTD SVG 20010904//EN"
 "http://www.w3.org/TR/2001/REC-SVG-20010904/DTD/svg10.dtd">
<svg version="1.0" xmlns="http://www.w3.org/2000/svg"
 width="743.000000pt" height="743.000000pt" viewBox="0 0 743.000000 743.000000"
 preserveAspectRatio="xMidYMid meet">
<metadata>
Created by potrace 1.14, written by Peter Selinger 2001-2017
</metadata>
<g transform="translate(0.000000,743.000000) scale(0.100000,-0.100000)"
fill="#000000" stroke="none">
<path d="M4279 5092 c-114 -114 -220 -220 -237 -236 l-31 -29 -60 55 c-85 79
-209 164 -328 225 -101 52 -301 125 -378 138 -162 28 -215 32 -355 30 -85 -2
-175 -6 -200 -10 -410 -60 -783 -282 -1026 -610 -66 -89 -67 -91 -123 -190
-83 -148 -146 -337 -175 -525 -14 -93 -15 -367 -2 -435 45 -231 70 -310 142
-462 97 -204 234 -378 414 -526 105 -87 152 -118 271 -181 158 -83 307 -131
499 -161 86 -14 394 -14 455 -1 17 4 64 14 105 22 135 28 314 98 445 173 69
40 222 153 279 206 l39 37 236 -236 c130 -129 239 -238 243 -242 8 -7 1588
1568 1588 1582 0 13 -1573 1584 -1585 1584 -6 -1 -103 -94 -216 -208z"/>
</g>
</svg>
